<?xml version="1.0" standalone="no"?>
<!DOCTYPE svg PUBLIC "-//W3C//DTD SVG 20010904//EN"
 "http://www.w3.org/TR/2001/REC-SVG-20010904/DTD/svg10.dtd">
<svg version="1.0" xmlns="http://www.w3.org/2000/svg"
 width="387.000000pt" height="387.000000pt" viewBox="0 0 387.000000 387.000000"
 preserveAspectRatio="xMidYMid meet">

<g transform="translate(0.000000,387.000000) scale(0.100000,-0.100000)"
fill="#000000" stroke="none">
<path d="M1795 3864 c-396 -40 -780 -202 -1099 -463 -99 -81 -260 -251 -329
-348 -141 -198 -250 -431 -306 -658 -41 -166 -52 -263 -52 -445 1 -384 94
-694 308 -1024 209 -322 436 -527 771 -695 298 -149 569 -208 922 -198 323 8
547 65 807 202 202 107 336 205 493 364 330 333 515 746 550 1227 28 394 -66
786 -270 1125 -153 253 -295 405 -535 571 -236 164 -463 256 -780 318 -107 21
-379 34 -480 24z m-210 -509 c140 -37 283 -151 343 -275 85 -173 77 -391 -20
-542 -67 -107 -204 -203 -329 -233 -83 -19 -219 -19 -294 0 -172 45 -318 182
-376 352 -34 99 -32 240 4 342 60 171 207 309 378 355 72 20 220 20 294 1z
m1240 -796 c45 -40 65 -78 65 -124 0 -67 -23 -101 -109 -162 -3 -2 9 -18 26
-36 72 -75 108 -194 101 -333 -3 -73 -9 -101 -34 -154 -82 -173 -253 -274
-484 -287 -221 -12 -390 52 -474 179 -64 96 -80 211 -50 356 44 213 216 377
439 417 100 18 143 18 223 1 l62 -13 0 39 c0 50 32 113 68 132 15 8 50 15 79
16 45 0 58 -5 88 -31z m-1550 -754 c39 -9 88 -26 110 -38 77 -43 135 -153 135
-255 l0 -44 47 7 c44 6 82 34 83 61 0 12 -57 -12 -85 -36 -12 -10 -16 -9 -21
4 -9 24 19 60 69 89 82 48 168 42 211 -15 20 -28 20 -28 0 -54 -11 -15 -34
-35 -52 -44 l-33 -18 67 -31 c36 -17 111 -60 166 -96 54 -36 102 -65 107 -65
10 0 70 82 97 133 l21 39 149 2 c113 2 166 7 217 21 l68 20 20 -25 c11 -14 35
-54 52 -90 28 -57 32 -75 32 -145 0 -88 -19 -137 -72 -187 -99 -93 -309 -121
-434 -57 -124 63 -133 226 -16 279 53 25 70 25 151 0 76 -24 134 -16 160 22
21 30 14 33 -25 9 -41 -25 -80 -26 -143 -5 -103 35 -197 -2 -240 -96 -18 -39
-25 -46 -41 -39 -11 4 -43 8 -70 8 -85 1 -155 -65 -155 -149 0 -36 -5 -36
-105 8 -33 14 -125 49 -205 76 -80 28 -144 56 -143 61 0 6 18 16 40 23 53 19
158 1 251 -43 78 -37 89 -33 19 8 -75 43 -141 59 -229 55 -70 -3 -76 -2 -51 9
59 25 191 10 271 -31 17 -9 32 -14 32 -11 0 3 -29 20 -65 36 -106 50 -224 50
-270 -1 -17 -19 -18 -18 -56 7 -30 20 -47 24 -73 20 -28 -4 -38 -1 -57 20 -13
14 -45 35 -70 48 -40 21 -312 115 -331 115 -4 0 -32 9 -63 21 l-56 21 78 73
c75 71 102 85 132 66 11 -7 9 -11 -9 -21 -12 -6 -20 -14 -17 -16 3 -3 23 5 46
17 40 20 47 21 114 10 170 -28 244 -102 281 -281 3 -14 3 4 0 40 -13 158 -91
228 -289 260 -32 5 -70 7 -84 4 -22 -5 -19 1 27 45 28 29 52 56 52 61 0 29
183 -4 262 -47 62 -34 96 -79 124 -167 18 -57 23 -65 23 -39 1 50 -37 141 -77
180 -40 40 -94 67 -167 83 -110 23 -104 15 -54 66 24 25 50 42 59 40 8 -2 47
-12 85 -21z m-143 -611 c41 -6 47 -10 67 -50 11 -25 21 -47 21 -49 0 -3 -168
-5 -373 -5 -277 0 -376 3 -385 12 -20 20 -14 65 10 82 19 14 67 16 319 16 163
0 316 -3 341 -6z m2242 -15 c32 -25 33 -53 4 -73 -19 -14 -68 -16 -331 -16
l-309 0 7 37 c14 78 -8 73 314 73 277 0 289 -1 315 -21z m-1301 -56 c10 -2 27
-26 38 -51 11 -25 38 -62 60 -82 l39 -37 -136 -6 c-75 -3 -143 -3 -151 0 -18
7 -43 56 -43 84 0 33 46 87 83 98 30 9 66 7 110 -6z m-470 -130 c42 -14 77
-30 77 -35 0 -4 -233 -8 -519 -8 -559 0 -558 0 -531 49 11 21 16 21 453 21
l442 0 78 -27z m1622 -8 l0 -30 -292 -3 c-161 -1 -293 1 -293 5 0 4 12 20 27
35 l27 28 266 -2 265 -3 0 -30z"/>
<path d="M2677 2509 c-21 -12 -47 -68 -46 -96 0 -13 4 -11 12 9 7 14 21 36 31
47 33 36 87 23 104 -26 13 -38 -1 -69 -40 -93 -30 -18 -31 -20 -10 -20 31 0
82 52 82 84 0 75 -75 128 -133 95z"/>
<path d="M2033 1910 c-12 -5 -29 -20 -39 -35 -14 -21 -14 -30 -4 -55 21 -50
89 -54 123 -8 17 23 18 31 8 56 -10 23 -50 56 -64 51 -1 0 -12 -4 -24 -9z"/>
<path d="M2522 1893 c-32 -27 -37 -64 -12 -96 42 -53 130 -24 130 43 0 60 -72
92 -118 53z"/>
<path d="M2250 1752 c0 -5 9 -17 19 -26 16 -14 23 -15 41 -6 12 6 19 17 17 23
-4 14 -77 22 -77 9z"/>
<path d="M2176 1658 c10 -33 21 -45 51 -53 17 -4 31 0 45 11 18 17 20 17 48 1
34 -20 72 -10 90 23 16 30 3 39 -16 12 -19 -27 -59 -29 -81 -2 -17 19 -17 19
-31 -1 -19 -28 -73 -23 -87 9 -5 12 -13 22 -18 22 -5 0 -5 -10 -1 -22z"/>
<path d="M1675 1495 c-27 -22 -28 -25 -9 -25 19 0 54 28 54 43 0 13 -15 7 -45
-18z"/>
<path d="M975 1499 c130 -17 175 -35 233 -95 29 -30 48 -45 41 -33 -6 12 -30
41 -54 65 -53 52 -119 75 -219 73 l-71 -2 70 -8z"/>
<path d="M1052 1392 c42 -16 85 -35 95 -42 49 -38 73 -66 73 -87 0 -13 5 -23
10 -23 26 0 -6 66 -49 103 -33 27 -113 60 -171 71 -19 3 0 -7 42 -22z"/>
<path d="M1492 1388 c-23 -11 -57 -39 -75 -62 l-32 -41 44 37 c24 20 59 44 78
53 47 23 135 21 206 -2 31 -11 57 -18 57 -16 0 2 -24 15 -52 28 -69 32 -164
33 -226 3z"/>
<path d="M1451 1299 c-35 -14 -20 -21 18 -8 60 21 152 7 232 -35 43 -22 67
-30 58 -20 -8 9 -41 30 -74 46 -50 23 -73 28 -135 27 -41 0 -86 -5 -99 -10z"/>
<path d="M1363 1235 c-3 -9 -3 -18 -1 -21 3 -3 8 4 11 16 6 23 -1 27 -10 5z"/>
</g>
</svg>
