<?xml version="1.0" encoding="UTF-8"?>
<svg version="1.1" xmlns="http://www.w3.org/2000/svg" width="484" height="484">
<path d="M0 0 C1.18686401 0.00564972 1.18686401 0.00564972 2.39770508 0.01141357 C67.94420702 0.37607416 129.41460693 24.20785788 176.5 70.25 C177.57701172 71.25160156 177.57701172 71.25160156 178.67578125 72.2734375 C217.81940517 109.45595801 241.47760708 169.44121141 244.41015625 222.65625 C245.92527478 283.26099104 231.66549009 341.13116103 193.5 389.25 C192.76394531 390.19101562 192.02789062 391.13203125 191.26953125 392.1015625 C178.37701883 407.96611673 163.28611779 423.51910745 146.5 435.25 C145.84708984 435.71486816 145.19417969 436.17973633 144.52148438 436.65869141 C101.76676028 466.91511592 55.90401847 480.9997349 3.6875 480.6875 C2.59981323 480.68445862 1.51212646 480.68141724 0.39147949 480.67828369 C-16.19356462 480.60988612 -32.27140433 479.97673448 -48.5 476.25 C-49.92554199 475.92854004 -49.92554199 475.92854004 -51.37988281 475.60058594 C-70.30558824 471.18865529 -88.4815503 464.34277531 -105.63671875 455.23242188 C-107.4763037 454.26249396 -109.32904496 453.32379829 -111.1875 452.390625 C-149.48610274 432.91908151 -179.76464586 402.37436367 -202.5 366.25 C-202.90283203 365.61191406 -203.30566406 364.97382813 -203.72070312 364.31640625 C-218.06645105 341.35411559 -228.46602461 316.81576668 -234.375 290.375 C-234.56626465 289.52164062 -234.7575293 288.66828125 -234.95458984 287.7890625 C-238.1131635 272.54987698 -238.85114439 257.28236095 -238.81567383 241.76464844 C-238.8125103 238.88438098 -238.83610239 236.00514202 -238.86132812 233.125 C-238.91877329 216.51794835 -236.97211541 200.47115597 -232.8125 184.375 C-232.55686279 183.37799072 -232.30122559 182.38098145 -232.0378418 181.35375977 C-225.23050867 155.65633085 -214.16228412 131.40789829 -199.5 109.25 C-199.0786377 108.61239746 -198.65727539 107.97479492 -198.22314453 107.31787109 C-193.06472943 99.60945462 -187.39531366 92.64107594 -181.015625 85.9140625 C-178.96104003 83.73824426 -176.99657048 81.53145208 -175.0625 79.25 C-166.65038562 69.62191648 -157.52558113 61.26546682 -147.30761719 53.60888672 C-145.5078767 52.25592136 -143.72628451 50.88144555 -141.9453125 49.50390625 C-102.27732227 19.20241683 -50.00510268 -0.36214588 0 0 Z " fill="#000000" transform="translate(239.5,-0.25)"/>
<path d="M0 0 C1.19431641 -0.01224609 2.38863281 -0.02449219 3.61914062 -0.03710938 C22.56393658 -0.06838862 38.40371889 7.10361699 52.1875 20.0625 C66.47063804 35.27780074 70.48238602 53.29184308 70.12109375 73.4375 C69.51005533 88.9340428 63.33837944 104.53029897 51.8125 115.1875 C43.73210589 122.20295086 35.78241971 127.17785838 25.8125 131.1875 C25.008125 131.5484375 24.20375 131.909375 23.375 132.28125 C9.49449192 137.19021017 -12.84008471 136.9095365 -26.203125 130.85546875 C-27.18796875 130.30503906 -28.1728125 129.75460938 -29.1875 129.1875 C-29.75919922 128.87635254 -30.33089844 128.56520508 -30.91992188 128.24462891 C-47.89946048 118.82729062 -60.59588183 104.32831978 -66.27734375 85.59375 C-67.49634015 80.5350618 -67.48950766 75.55531872 -67.4375 70.375 C-67.43000732 69.39740723 -67.42251465 68.41981445 -67.41479492 67.41259766 C-67.12544866 48.05064477 -60.14571311 32.50584564 -46.9375 18.375 C-33.55824581 5.69379386 -17.9955973 0.00955688 0 0 Z " fill="#FEFEFE" transform="translate(178.1875,62.8125)"/>
<path d="M0 0 C2.10779298 1.49019769 3.87962965 3.06206664 5.69140625 4.8984375 C6.48417969 5.6409375 6.48417969 5.6409375 7.29296875 6.3984375 C11.40411342 10.99189523 11.36739544 15.9147057 11.1015625 21.87890625 C10.08255652 29.38073125 4.22380197 33.3597245 -1.30859375 37.8984375 C-0.28008339 41.29252168 1.100503 43.44014437 3.50390625 45.9609375 C13.74257031 57.45127198 14.5510257 73.93278742 13.88671875 88.50878906 C12.74243053 102.50915545 4.67490481 114.48586544 -5.30859375 123.8984375 C-24.60265595 139.68193525 -48.31226801 141.35012085 -72.30859375 139.8984375 C-85.02279837 138.38322289 -98.69130808 132.57659851 -107.30859375 122.8984375 C-118.41277373 108.48808484 -120.15557697 93.225833 -118.02734375 75.56445312 C-115.15770348 57.61289667 -104.44498962 42.66769281 -90.14453125 31.77734375 C-73.16122392 20.52531782 -52.93621023 16.37565814 -32.99609375 20.3984375 C-30.76415171 20.88589906 -28.53386177 21.38136277 -26.30859375 21.8984375 C-26.41300781 20.98964844 -26.41300781 20.98964844 -26.51953125 20.0625 C-26.99979146 12.62990146 -25.13445515 7.59295395 -20.30859375 1.8984375 C-14.5652062 -1.93048753 -6.38261369 -3.0455111 0 0 Z " fill="#FCFCFC" transform="translate(350.30859375,161.1015625)"/>
<path d="M0 0 C12.18327755 2.5095589 23.88369712 6.26216894 31 17 C34.91215275 24.24510366 37.16214317 30.54211672 37.0625 38.8125 C37.05347656 39.78832031 37.04445313 40.76414062 37.03515625 41.76953125 C37.02355469 42.50558594 37.01195312 43.24164063 37 44 C38.93786085 43.52229477 40.87527674 43.04278429 42.8125 42.5625 C43.89144531 42.29566406 44.97039062 42.02882813 46.08203125 41.75390625 C48.0740843 41.23922588 50.04811524 40.65062825 52 40 C52.73323796 37.98491642 52.73323796 37.98491642 53 36 C51.70590408 36.45142881 50.41478941 36.91141021 49.125 37.375 C48.40570313 37.63023437 47.68640625 37.88546875 46.9453125 38.1484375 C44.81842006 38.93877783 44.81842006 38.93877783 43 41 C42.01 41 41.02 41 40 41 C39.74609375 38.7578125 39.74609375 38.7578125 40 36 C44.11184301 30.90914675 49.69141712 26.74029873 56 25 C62.25209044 24.35922938 67.69647777 24.24872818 73 28 C75.4375 30.4375 75.4375 30.4375 77 33 C76.6530309 36.48356978 75.32486603 37.99063622 72.6875 40.1875 C72.09324219 40.69667969 71.49898437 41.20585937 70.88671875 41.73046875 C68.90908216 43.0611766 67.32899925 43.57327387 65 44 C65 44.66 65 45.32 65 46 C65.54164795 46.15637939 66.0832959 46.31275879 66.64135742 46.47387695 C72.69495794 48.34026854 77.88625555 50.9477178 83.3125 54.1875 C84.1362915 54.66928711 84.96008301 55.15107422 85.80883789 55.64746094 C91.62489288 59.08145369 97.19778115 62.74744291 102.65234375 66.734375 C104.86381985 68.16952077 104.86381985 68.16952077 107.1015625 67.984375 C109.7242743 66.62445037 110.80050829 64.94981669 112.4375 62.5 C112.99308594 61.6853125 113.54867187 60.870625 114.12109375 60.03125 C116.03484288 57.22607897 116.03484288 57.22607897 116.71679688 54.69897461 C117.80156241 51.75657737 118.66807382 50.12757229 121 48 C126.84003577 46.57676136 132.63856314 46.59621141 138.625 46.5625 C141.82593828 46.49489259 145.02614488 46.4049343 148.2265625 46.31640625 C148.99580551 46.29956787 149.76504852 46.28272949 150.55760193 46.26538086 C155.73376545 46.12729859 160.66195833 45.5842774 165.7331543 44.47875977 C169.45819207 43.69202858 173.21392115 43.3724012 177 43 C186.30375169 56.23626529 191.03909022 67.74591357 188.5390625 83.99609375 C186.37341066 92.16187511 182.24480609 97.86994897 175.0625 102.3125 C165.34573667 107.68152238 157.36084305 109.21150966 146.3125 109.3125 C145.27416016 109.34150391 144.23582031 109.37050781 143.16601562 109.40039062 C134.7648801 109.46886383 127.47627878 107.81805468 120.625 102.75 C115.65607292 97.54445735 113.7691672 93.11559779 113.5 85.875 C113.70497086 80.78275529 114.33395468 77.75769645 118 74 C123.51907454 70.00794213 128.03746502 67.2486473 135 68 C136.73758435 68.46991275 138.46644916 68.97274165 140.1875 69.5 C146.11253787 71.19987293 151.87010917 72.02469817 158 71 C160.4105598 69.54761251 161.35720595 68.34684864 163 66 C162.43152344 66.2165625 161.86304688 66.433125 161.27734375 66.65625 C155.12421765 68.87507343 150.19728023 69.97726736 143.75390625 68.0078125 C136.48771571 66.05705583 127.23749142 65.130555 120.4375 68.9375 C116.23325372 72.1341927 113.643441 76.50446658 111 81 C110.34 81.99 109.68 82.98 109 84 C106.23382956 84.0892313 103.62701556 84.03385405 100.875 83.875 C94.90325563 83.7041828 90.30305476 83.6227983 85.44140625 87.52734375 C80.29008327 92.79034853 79.06311242 97.92190938 78 105 C73.66091712 104.3998968 69.86037997 103.34322567 65.7734375 101.77734375 C64.58516357 101.32464111 63.39688965 100.87193848 62.17260742 100.40551758 C60.90665167 99.91640251 59.64078413 99.42705906 58.375 98.9375 C57.07865626 98.44067475 55.7821872 97.94417637 54.4855957 97.44799805 C43.94779571 93.40561917 33.45640734 89.24829588 23 85 C23 84.01 23 83.02 23 82 C28.88299676 78.44449953 36.57477506 79.05785533 43.11914062 80.45117188 C50.08986382 82.28423739 56.55192281 84.76647894 63 88 C63.66 88 64.32 88 65 88 C51.52377181 80.73271464 40.08398967 78.51282028 25 78 C27.57461461 75.42538539 29.39980864 75.68879819 32.91748047 75.62060547 C33.70783691 75.62205566 34.49819336 75.62350586 35.3125 75.625 C36.1183252 75.62516113 36.92415039 75.62532227 37.75439453 75.62548828 C46.48652606 75.79011469 54.23891507 77.91715438 62 82 C59.97654609 79.97654609 56.9207 79.12729541 54.3125 78 C53.69955078 77.72671875 53.08660156 77.4534375 52.45507812 77.171875 C44.98438038 73.93959008 37.08032034 72.98995996 29 74 C26.70478606 75.12848019 24.80140563 76.43267132 22.74609375 77.9453125 C21 79 21 79 17.6875 78.9375 C15 78 15 78 12 76 C10.29475527 75.87979422 8.58443288 75.82467545 6.875 75.8125 C1.23798933 75.39985608 -1.25567114 73.61736972 -5.41113281 69.97094727 C-15.6906898 62.14495108 -30.48478372 59.08733632 -42.625 55.25 C-45.34379874 54.3861773 -48.06191984 53.52034364 -50.77890015 52.65081787 C-52.45387842 52.11518882 -54.12995749 51.58298605 -55.80728149 51.05474854 C-56.56262177 50.81399597 -57.31796204 50.57324341 -58.09619141 50.32519531 C-59.08542099 50.01258759 -59.08542099 50.01258759 -60.09463501 49.69366455 C-62.1547072 48.94367751 -64.05813053 48.01424976 -66 47 C-64.36441616 42.62085618 -61.06599434 39.99351874 -57.6875 36.9375 C-56.83381836 36.14375977 -56.83381836 36.14375977 -55.96289062 35.33398438 C-52.84523548 32.48120464 -49.83444684 29.8583326 -46 28 C-42.6875 28.3125 -42.6875 28.3125 -40 29 C-40.33 29.99 -40.66 30.98 -41 32 C-40.29488281 31.67902344 -39.58976562 31.35804688 -38.86328125 31.02734375 C-28.36433649 27.2603281 -16.85239919 30.87914514 -7 35 C1.34442968 39.57897673 6.70356216 47.02368765 9.375 56.125 C9.684375 57.548125 9.684375 57.548125 10 59 C9.60997381 50.57543435 7.69668741 44.30433285 1.5625 38.3125 C-9.17552216 29.69459921 -22.82280259 28.61594744 -36 27 C-34.5157197 23.87662477 -33.01930954 21.82337153 -30.5 19.4375 C-28.27903267 17.32475777 -26.72257583 15.58386374 -25 13 C-13.35972491 11.57049253 1.26713561 15.61586762 11 22 C18.64348833 28.28464596 21.98125697 36.82571949 25 46 C23.93047996 36.30055962 20.96655536 28.37928625 13.6875 21.625 C5.31274141 15.17172282 -4.91747448 13.32578503 -15 11 C-15 7.18893172 -14.0288238 6.5120005 -11.4375 3.8125 C-10.77621094 3.09707031 -10.11492187 2.38164062 -9.43359375 1.64453125 C-6.08916028 -0.61551127 -3.97905321 -0.37490009 0 0 Z " fill="#FAFAFA" transform="translate(153,256)"/>
<path d="M0 0 C0.77093994 -0.0049649 1.54187988 -0.00992981 2.33618164 -0.01504517 C4.89372646 -0.02968239 7.45120919 -0.03647228 10.00878906 -0.04199219 C11.78517662 -0.0477435 13.56156415 -0.05350124 15.33795166 -0.05926514 C19.06710093 -0.06978035 22.79622861 -0.07561923 26.52539062 -0.07910156 C31.29809767 -0.0845795 36.07051844 -0.10859028 40.84313583 -0.13707352 C44.51492131 -0.15572369 48.18663826 -0.16090682 51.8584671 -0.16243744 C53.61749075 -0.16546043 55.37651329 -0.17347705 57.13549042 -0.18662262 C59.60096286 -0.20372882 62.06574185 -0.20179161 64.53125 -0.1953125 C65.25459534 -0.20452728 65.97794067 -0.21374207 66.72320557 -0.22323608 C71.38728934 -0.18495255 74.55043568 0.73058875 78.52441406 3.16113281 C81.06406135 6.14895315 82.52441406 9.18898202 82.52441406 13.16113281 C79.41610461 14.71528754 76.12458095 14.29954528 72.71337891 14.29052734 C71.50326645 14.29315582 71.50326645 14.29315582 70.26870728 14.2958374 C67.59090039 14.30025245 64.91315917 14.29731749 62.23535156 14.29394531 C60.37407417 14.29461885 58.51279687 14.29558929 56.65151978 14.29684448 C52.7424435 14.29832131 48.83339003 14.29616885 44.92431641 14.29150391 C39.92771252 14.28583032 34.93116264 14.28907061 29.93456078 14.29507637 C26.08598428 14.29870267 22.23742042 14.29753349 18.38884354 14.29494858 C16.54775613 14.29428379 14.70666756 14.29509199 12.86558151 14.29742813 C10.28096264 14.29998598 7.69642899 14.29606914 5.11181641 14.29052734 C3.9814798 14.29356369 3.9814798 14.29356369 2.82830811 14.29666138 C-2.02218951 14.27752915 -6.70125501 14.0651133 -11.47558594 13.16113281 C-13.6410971 9.91286607 -14.02715546 8.93019124 -13.47558594 5.16113281 C-9.34057699 0.19912208 -6.15956193 0.00941362 0 0 Z " fill="#F3F3F3" transform="translate(69.4755859375,333.8388671875)"/>
<path d="M0 0 C0.66408875 -0.00686325 1.32817749 -0.0137265 2.01239014 -0.02079773 C4.1967131 -0.0390242 6.38031494 -0.03523445 8.56469727 -0.02954102 C10.09017672 -0.03410496 11.61565412 -0.03941117 13.14112854 -0.04542542 C16.33456792 -0.05434841 19.52775712 -0.05194294 22.72119141 -0.04199219 C26.80459637 -0.03050539 30.88713618 -0.05071274 34.97042751 -0.07990932 C38.1198318 -0.0982954 41.26902969 -0.09797411 44.4184742 -0.0922718 C45.92350541 -0.09211887 47.42855086 -0.09814006 48.93353081 -0.11056328 C51.04216947 -0.12551769 53.14922195 -0.11476646 55.2578125 -0.09765625 C57.05387184 -0.097407 57.05387184 -0.097407 58.88621521 -0.09715271 C63.13581272 0.54683621 66.14786073 2.35830994 69.19360352 5.40405273 C69.50610352 7.77905273 69.50610352 7.77905273 69.19360352 10.40405273 C66.10264797 13.86592294 62.63438187 13.9041164 58.19360352 14.40405273 C55.72669095 14.48702964 53.25785464 14.52191609 50.78955078 14.51757812 C50.08627151 14.51772415 49.38299225 14.51787018 48.65840149 14.51802063 C46.35890501 14.51733 44.05949191 14.50957783 41.76000977 14.50170898 C40.15575708 14.49984178 38.55150383 14.49841931 36.94725037 14.49742126 C32.74364624 14.49361989 28.54007718 14.48381013 24.33648682 14.47271729 C20.03951491 14.46245179 15.7425373 14.45791267 11.44555664 14.45288086 C3.02822292 14.44218555 -5.38908241 14.42513797 -13.80639648 14.40405273 C-13.60458217 12.62989405 -13.36884989 10.85957178 -13.11889648 9.09155273 C-12.9912793 8.10541992 -12.86366211 7.11928711 -12.73217773 6.10327148 C-11.80639648 3.40405273 -11.80639648 3.40405273 -9.64976501 1.57383728 C-6.24736064 0.17406092 -3.67877016 0.01661099 0 0 Z " fill="#F5F5F5" transform="translate(355.806396484375,333.595947265625)"/>
<path d="M0 0 C0.89273621 -0.0071553 1.78547241 -0.01431061 2.70526123 -0.02168274 C3.67210342 -0.02437164 4.63894562 -0.02706055 5.63508606 -0.02983093 C7.17753494 -0.03968773 7.17753494 -0.03968773 8.75114441 -0.04974365 C12.14971495 -0.06943239 15.54824138 -0.0811296 18.94685364 -0.09111023 C20.11027094 -0.09518576 21.27368824 -0.09926128 22.47236061 -0.10346031 C28.63060451 -0.12430242 34.78882626 -0.13861208 40.94709778 -0.147995 C47.29436656 -0.15905402 53.64128428 -0.19345391 59.98842907 -0.23316669 C64.88106928 -0.259361 69.77362618 -0.26768937 74.66633034 -0.27127647 C77.0053933 -0.27613528 79.34445272 -0.28772898 81.68344688 -0.30631447 C84.96448166 -0.33076451 88.24461233 -0.32972976 91.52571106 -0.32279968 C92.4824321 -0.33560974 93.43915314 -0.3484198 94.42486572 -0.36161804 C101.19582385 -0.30977148 106.28392677 1.35563019 112.40388489 4.14717102 C113.94066921 4.74324805 115.48208293 5.32759434 117.02888489 5.89717102 C118.14263489 6.30967102 119.25638489 6.72217102 120.40388489 7.14717102 C120.40388489 7.80717102 120.40388489 8.46717102 120.40388489 9.14717102 C104.94780981 9.17059221 89.49173607 9.18819532 74.03564739 9.19898319 C66.85817558 9.20412663 59.68071483 9.21113189 52.50325012 9.22261047 C46.24310432 9.23261721 39.98296653 9.23903863 33.72281295 9.24125952 C30.41200599 9.2425565 27.10122715 9.24611262 23.79042625 9.25290108 C20.08303361 9.26019791 16.3756879 9.26115832 12.66828918 9.26069641 C11.5857486 9.26429169 10.50320801 9.26788696 9.38786316 9.27159119 C2.67397356 9.26258536 -3.92147911 8.87293283 -10.59611511 8.14717102 C-11.22111511 6.33467102 -11.22111511 6.33467102 -11.59611511 4.14717102 C-9.59611511 1.14717102 -9.59611511 1.14717102 -7.25837231 0.46886921 C-4.81052065 0.17307906 -2.46415214 0.01365014 0 0 Z " fill="#EFEFEF" transform="translate(89.59611511230469,355.8528289794922)"/>
<path d="M0 0 C0.83402344 -0.00515625 1.66804688 -0.0103125 2.52734375 -0.015625 C5.50944642 0.29682952 7.43900632 0.76715575 10.0625 2.25 C12.0546875 5.04296875 12.0546875 5.04296875 13.9375 8.4375 C16.72385307 13.29486357 19.6407191 17.31607258 23.8125 21.078125 C24.225 21.46484375 24.6375 21.8515625 25.0625 22.25 C25.0625 22.58 25.0625 22.91 25.0625 23.25 C17.48234558 24.21785233 9.95076948 24.63457715 2.3125 24.8125 C1.10722656 24.87501953 -0.09804687 24.93753906 -1.33984375 25.00195312 C-9.90157119 25.15874392 -9.90157119 25.15874392 -12.87036133 22.55444336 C-15.11189578 19.12470183 -15.90785657 16.81322526 -16.125 12.6875 C-14.40495524 7.70842308 -11.54838928 3.884503 -7.046875 1.06640625 C-4.57202709 0.10854845 -2.64937625 -0.01632898 0 0 Z " fill="#F7F7F7" transform="translate(250.9375,341.75)"/>
<path d="M0 0 C0.65407333 -0.00058411 1.30814667 -0.00116821 1.98204041 -0.00177002 C4.13603476 0.00100857 6.28863138 0.03208609 8.44238281 0.06347656 C9.93881474 0.07093985 11.43525646 0.07663237 12.93170166 0.08062744 C16.86435071 0.09587717 20.79640589 0.13515244 24.7288208 0.17944336 C28.74393684 0.22041083 32.75914913 0.23864156 36.77441406 0.25878906 C44.64838407 0.30164808 52.521872 0.36989053 60.39550781 0.45410156 C60.39550781 3.09410156 60.39550781 5.73410156 60.39550781 8.45410156 C36.30550781 8.45410156 12.21550781 8.45410156 -12.60449219 8.45410156 C-9.37133603 1.98778924 -7.33610857 -0.05515871 0 0 Z " fill="#F7F7F7" transform="translate(342.6044921875,356.5458984375)"/>
<path d="M0 0 C3.375 2.0625 3.375 2.0625 6 5 C6.73590357 9.12105997 6.43202533 11.17195144 4.5 14.875 C1.58370525 17.35385054 -0.2724717 17.94445695 -4.03125 18.2109375 C-7.22582498 17.86866161 -8.85616798 16.27376123 -11 14 C-12.42662219 11.14675563 -12.31033868 9.16545451 -12 6 C-8.57142548 0.85713823 -6.21724352 -0.71737425 0 0 Z " fill="#0A0A0A" transform="translate(324,245)"/>
<path d="M0 0 C3.21089853 3.0014921 4.94617879 4.65446975 5.125 9.125 C3.69088394 12.78996327 2.42442889 14.06445324 -1 16 C-4.64962568 16.44819965 -7.00997209 16.44290722 -10.375 14.9375 C-12.83289714 12.00693033 -13 9.77910616 -13 6 C-9.84405222 0.74008703 -6.09710408 -2.37935769 0 0 Z " fill="#050505" transform="translate(261,245)"/>
<path d="M0 0 C-6.16971279 6.16971279 -6.16971279 6.16971279 -11.375 6.25 C-16.8127133 6.22413692 -21.36201658 5.22918534 -26.54296875 3.6875 C-32.07605773 2.13929068 -35.69055694 2.61746415 -40.6875 5.25 C-43.91377832 7.17809842 -46.43457987 9.23723985 -49 12 C-49.99 12.33 -50.98 12.66 -52 13 C-50.45096737 7.14809894 -46.09536215 4.02940962 -41.23046875 0.83984375 C-38.01306581 -0.3716127 -35.1141501 -0.26377548 -31.6875 -0.25 C-29.77517578 -0.25773437 -29.77517578 -0.25773437 -27.82421875 -0.265625 C-23.94719374 0.00366785 -20.70013988 0.852912 -17 2 C-12.87199232 2.36857211 -9.97561489 2.14376901 -6.25 0.4375 C-3 -1 -3 -1 0 0 Z " fill="#141414" transform="translate(317,322)"/>
<path d="M0 0 C4.66871621 4.52308653 8.71474487 10.5274626 9.03515625 17.23046875 C9.00260417 19.21614583 8.97005208 21.20182292 8.9375 23.1875 C6.59635618 20.84635618 6.1829583 19.19732043 5.1875 16.0625 C2.44842216 8.36891371 -1.37834143 2.37155533 -8.60546875 -1.71875 C-17.35217908 -5.61235714 -26.53687263 -7.42369888 -36.0625 -7.8125 C-36.0625 -8.1425 -36.0625 -8.4725 -36.0625 -8.8125 C-23.09749452 -10.97333425 -10.31981847 -8.6224799 0 0 Z " fill="#141414" transform="translate(155.0625,293.8125)"/>
<path d="M0 0 C7.93931146 6.49580029 13.30011497 13.96754525 14.5 24.3125 C14.5825 25.611875 14.665 26.91125 14.75 28.25 C11.69279286 26.72139643 11.55340152 24.35346165 10.4375 21.1875 C7.03322352 12.19470028 4.35224734 6.3232193 -4.29296875 1.56640625 C-11.60107373 -1.68700376 -19.3639 -3.54318773 -27.25 -4.75 C-27.25 -5.08 -27.25 -5.41 -27.25 -5.75 C-17.89204435 -8.38192503 -8.20292088 -4.4169574 0 0 Z " fill="#181818" transform="translate(164.25,274.75)"/>
<path d="M0 0 C3.34994714 2.3442835 5.48396484 5.0555197 6.5390625 9.03125 C6.8199381 12.87481091 6.02708272 15.44338872 3.6875 18.375 C-1.04761905 23 -1.04761905 23 -5 23 C-5 22.34 -5 21.68 -5 21 C-3.824375 20.319375 -3.824375 20.319375 -2.625 19.625 C0.21555487 17.86656127 1.01482025 17.13466284 2 14 C2.45476766 10.36185869 2.46476653 8.67927416 0.375 5.625 C-2.75011169 3.48676569 -4.28162465 3.3170331 -8 4 C-11.16797175 6.65225542 -13.62748777 9.62853525 -16 13 C-15.56568635 7.57107935 -14.37231161 4.29203296 -11 0 C-7.42668635 -1.78665682 -3.74411661 -1.11006472 0 0 Z " fill="#151515" transform="translate(345,170)"/>
<path d="M0 0 C0.70125 0.825 1.4025 1.65 2.125 2.5 C4.77100808 5.2457843 4.77100808 5.2457843 8.125 5.5 C11.19735411 4.96567755 12.16115216 4.45179712 14 2 C14.7734375 2.4640625 14.7734375 2.4640625 15.5625 2.9375 C18.75371709 4.32854335 21.52758063 4.81059531 25 5 C26.8354799 3.66621425 26.8354799 3.66621425 28 2 C28.66 2 29.32 2 30 2 C29.63802104 4.62434747 29.17343943 5.82013689 27.3125 7.75 C24.30042318 9.37814963 22.38907468 9.34582395 19 9 C18.113125 8.62875 17.22625 8.2575 16.3125 7.875 C15.549375 7.58625 14.78625 7.2975 14 7 C13.01 7.66 12.02 8.32 11 9 C4.90673575 9.54404145 4.90673575 9.54404145 2.125 7.875 C0.59569177 5.32615294 0.32529059 2.92761527 0 0 Z " fill="#131313" transform="translate(272,274)"/>
<path d="M0 0 C-3 1 -3 1 -6.6875 -0.4375 C-14.40534443 -3.13182089 -23.60619397 -3.58979633 -31.3359375 -0.79296875 C-35.89438489 1.62068637 -39.44883397 4.25335694 -43 8 C-43.66 7.67 -44.32 7.34 -45 7 C-32.02568326 -6.86341966 -16.83313832 -8.77705536 0 0 Z " fill="#171717" transform="translate(220,313)"/>
<path d="M0 0 C11.45026848 -0.41220967 21.61467666 -0.42095334 31 7 C32.70680947 8.62553283 34.37660195 10.29115995 36 12 C36.763125 12.763125 37.52625 13.52625 38.3125 14.3125 C38.869375 14.869375 39.42625 15.42625 40 16 C39.67 16.66 39.34 17.32 39 18 C38.53851563 17.48050781 38.07703125 16.96101563 37.6015625 16.42578125 C26.97822165 5.06762433 14.78798257 3.40615946 0 1 C0 0.67 0 0.34 0 0 Z " fill="#343434" transform="translate(116,295)"/>
<path d="M0 0 C15.1520483 0.19290802 29.39848173 1.81139293 42 11 C39 12 39 12 36.6875 11.109375 C35.800625 10.66078125 34.91375 10.2121875 34 9.75 C22.99158226 4.56195979 11.97562974 3.19335115 0 2 C0 1.34 0 0.68 0 0 Z " fill="#313131" transform="translate(177,333)"/>
<path d="M0 0 C7.4990625 3.0815625 7.4990625 3.0815625 10.9140625 4.7890625 C10.5840625 5.4490625 10.2540625 6.1090625 9.9140625 6.7890625 C9.3571875 6.52351563 8.8003125 6.25796875 8.2265625 5.984375 C7.4634375 5.63117188 6.7003125 5.27796875 5.9140625 4.9140625 C5.1715625 4.56601562 4.4290625 4.21796875 3.6640625 3.859375 C-3.56209988 1.04691976 -9.91150356 0.51905139 -17.5859375 0.6640625 C-18.50375 0.67308594 -19.4215625 0.68210937 -20.3671875 0.69140625 C-22.60705306 0.71473818 -24.84634933 0.74747015 -27.0859375 0.7890625 C-27.0859375 0.1290625 -27.0859375 -0.5309375 -27.0859375 -1.2109375 C-19.05675926 -6.02844445 -8.18428844 -3.21155622 0 0 Z " fill="#2A2A2A" transform="translate(205.0859375,332.2109375)"/>
<path d="M0 0 C3.46681977 1.96223253 6.8674679 3.9784776 10.16015625 6.22265625 C9.50015625 6.55265625 8.84015625 6.88265625 8.16015625 7.22265625 C5.76953125 6.296875 5.76953125 6.296875 2.91015625 4.91015625 C-3.83147024 1.66039431 -9.30530463 -0.09938909 -16.83984375 0.03515625 C-17.86851562 0.03612305 -17.86851562 0.03612305 -18.91796875 0.03710938 C-22.98766604 0.07205907 -26.84728034 0.44285871 -30.83984375 1.22265625 C-30.83984375 0.56265625 -30.83984375 -0.09734375 -30.83984375 -0.77734375 C-21.4217642 -4.47941905 -9.1865247 -4.3962957 0 0 Z " fill="#454545" transform="translate(209.83984375,322.77734375)"/>
<path d="M0 0 C1.17046875 0.01804687 2.3409375 0.03609375 3.546875 0.0546875 C4.88492187 0.08949219 4.88492187 0.08949219 6.25 0.125 C6.25 0.785 6.25 1.445 6.25 2.125 C5.63253906 2.13917969 5.01507813 2.15335937 4.37890625 2.16796875 C-4.41688582 2.66331777 -10.73571784 5.64808075 -16.75 12.125 C-17.74 12.455 -18.73 12.785 -19.75 13.125 C-18.2008415 7.27262346 -13.8330989 4.1203389 -8.9453125 0.95703125 C-5.90230541 -0.19627927 -3.24103311 -0.06482066 0 0 Z " fill="#121212" transform="translate(284.75,321.875)"/>
<path d="M0 0 C11.1901403 2.61670581 21.54220157 5.83788162 28 16 C28.9375 19.5 28.9375 19.5 29 22 C28.34 22 27.68 22 27 22 C26.67 20.989375 26.34 19.97875 26 18.9375 C22.83612739 11.80440539 17.14044381 8.28972417 10.12792969 5.47485352 C8.76244799 4.95432415 7.39195792 4.44672898 6.01660156 3.95288086 C1.08904062 2.17808124 1.08904062 2.17808124 0 0 Z " fill="#2D2D2D" transform="translate(126,307)"/>
<path d="M0 0 C1.62766228 0.0039959 3.25532516 0.01877293 4.8828125 0.04296875 C5.69878906 0.04361328 6.51476562 0.04425781 7.35546875 0.04492188 C11.09391379 0.0723656 14.39120662 0.20944724 18.0078125 1.23046875 C18.0078125 2.22046875 18.0078125 3.21046875 18.0078125 4.23046875 C16.55181641 4.00037109 16.55181641 4.00037109 15.06640625 3.765625 C10.74561356 3.1483689 6.42639932 2.8956648 2.0703125 2.66796875 C1.29107422 2.62478516 0.51183594 2.58160156 -0.29101562 2.53710938 C-2.19125867 2.43218798 -4.09170419 2.33094425 -5.9921875 2.23046875 C-3.9921875 0.23046875 -3.9921875 0.23046875 0 0 Z " fill="#EFEFEF" transform="translate(183.9921875,331.76953125)"/>
<path d="M0 0 C0.66 0.825 1.32 1.65 2 2.5 C6.02366618 5.85305515 7.90700467 5.43160977 13 5 C13 5.99 13 6.98 13 8 C9.95016004 9.52491998 7.3576631 9.23562548 4 9 C2.125 7.875 2.125 7.875 1 6 C0.3125 2.8125 0.3125 2.8125 0 0 Z " fill="#0D0D0D" transform="translate(272,274)"/>
<path d="M0 0 C-0.1875 1.8125 -0.1875 1.8125 -1 4 C-4.50031113 6.70024001 -7.64980938 7.49416388 -12 8 C-8.49667667 2.24454024 -6.83742827 0 0 0 Z " fill="#141414" transform="translate(206,292)"/>
<path d="M0 0 C6.75 -0.125 6.75 -0.125 9 1 C8.67 2.32 8.34 3.64 8 5 C5.125 5.125 5.125 5.125 2 5 C1.34 4.34 0.68 3.68 0 3 C0 2.01 0 1.02 0 0 Z " fill="#1B1B1B" transform="translate(282,264)"/>
<path d="M0 0 C6.4188547 1.73624758 12.13784836 3.85180745 18 7 C17.67 7.66 17.34 8.32 17 9 C16.443125 8.73445313 15.88625 8.46890625 15.3125 8.1953125 C10.25024604 5.85230982 5.44960046 4.18900374 0 3 C0 2.01 0 1.02 0 0 Z " fill="#444444" transform="translate(198,330)"/>
<path d="M0 0 C3.83797544 1.56361962 6.1667627 4.02510083 9 7 C9.763125 7.763125 10.52625 8.52625 11.3125 9.3125 C11.869375 9.869375 12.42625 10.42625 13 11 C12.67 11.66 12.34 12.32 12 13 C11.48050781 12.46890625 10.96101562 11.9378125 10.42578125 11.390625 C6.77192991 7.68949647 3.17122079 4.12841559 -1 1 C-0.67 0.67 -0.34 0.34 0 0 Z " fill="#2A2A2A" transform="translate(143,300)"/>
<path d="M0 0 C-0.33 0.99 -0.66 1.98 -1 3 C-6.61 2.34 -12.22 1.68 -18 1 C-18 0.67 -18 0.34 -18 0 C-11.76817361 -1.03863773 -6.25307239 -0.83288874 0 0 Z " fill="#3D3D3D" transform="translate(137,285)"/>
<path d="M0 0 C0.66 0.33 1.32 0.66 2 1 C2 1.66 2 2.32 2 3 C0.171875 4.4375 0.171875 4.4375 -2.25 6 C-3.03890625 6.515625 -3.8278125 7.03125 -4.640625 7.5625 C-6.72070886 8.82983586 -8.80311715 9.9519458 -11 11 C-7.6189962 6.86378916 -4.33409466 3.18683431 0 0 Z " fill="#222222" transform="translate(186,310)"/>
<path d="M0 0 C-0.33 0.99 -0.66 1.98 -1 3 C-6.94 2.01 -6.94 2.01 -13 1 C-13 0.67 -13 0.34 -13 0 C-8.38926889 -1.29676812 -4.66159911 -0.71109139 0 0 Z " fill="#333333" transform="translate(150,269)"/>
<path d="M0 0 C4.455 0.99 4.455 0.99 9 2 C8.01 2.99 7.02 3.98 6 5 C3.73828125 4.85546875 3.73828125 4.85546875 1.3125 4.1875 C0.10013672 3.86845703 0.10013672 3.86845703 -1.13671875 3.54296875 C-2.05904297 3.27419922 -2.05904297 3.27419922 -3 3 C-2.01 2.67 -1.02 2.34 0 2 C0 1.34 0 0.68 0 0 Z " fill="#292929" transform="translate(291,322)"/>
<path d="M0 0 C0.33 0.66 0.66 1.32 1 2 C1.66 2 2.32 2 3 2 C3 2.66 3 3.32 3 4 C3.99 4.33 4.98 4.66 6 5 C5.34 5.66 4.68 6.32 4 7 C2.68 7 1.36 7 0 7 C0 4.69 0 2.38 0 0 Z " fill="#090909" transform="translate(190,293)"/>
<path d="M0 0 C1.41655793 -0.0272415 2.83327045 -0.04650467 4.25 -0.0625 C5.43335938 -0.07990234 5.43335938 -0.07990234 6.640625 -0.09765625 C8.90691002 -0.00385306 10.8288895 0.36758937 13 1 C13 1.66 13 2.32 13 3 C11.58249437 2.88490339 10.16598831 2.75746342 8.75 2.625 C7.96109375 2.55539062 7.1721875 2.48578125 6.359375 2.4140625 C3.914123 1.98492887 2.15163097 1.21399362 0 0 Z " fill="#121212" transform="translate(190,335)"/>
<path d="M0 0 C2.02350324 3.03525486 2.32124018 4.19426202 2.625 7.6875 C2.69976562 8.49574219 2.77453125 9.30398438 2.8515625 10.13671875 C2.90054688 10.75160156 2.94953125 11.36648438 3 12 C1 11 1 11 0.33203125 9.00390625 C0.16058594 8.19824219 -0.01085937 7.39257812 -0.1875 6.5625 C-0.36667969 5.75941406 -0.54585937 4.95632813 -0.73046875 4.12890625 C-1 2 -1 2 0 0 Z " fill="#2F2F2F" transform="translate(176,291)"/>
<path d="M0 0 C-1.15173355 2.46800047 -2.04783565 4.04783565 -4 6 C-6.125 5.625 -6.125 5.625 -8 5 C-2.25 0 -2.25 0 0 0 Z " fill="#171717" transform="translate(215,294)"/>
<path d="M0 0 C0.99 0 1.98 0 3 0 C4.76462683 3.08809695 5 4.23312136 5 8 C4.34 8 3.68 8 3 8 C0 2.25 0 2.25 0 0 Z " fill="#212121" transform="translate(171,285)"/>
<path d="M0 0 C0.99 0.33 1.98 0.66 3 1 C3 3.64 3 6.28 3 9 C0.23776722 6.23776722 0.42143709 3.79293383 0 0 Z " fill="#2B2B2B" transform="translate(161,308)"/>
<path d="M0 0 C2.64 0.33 5.28 0.66 8 1 C8 1.99 8 2.98 8 4 C5.64828869 3.40138258 3.3140622 2.73075648 1 2 C0.67 1.34 0.34 0.68 0 0 Z " fill="#1F1F1F" transform="translate(135,286)"/>
<path d="M0 0 C0.33 0.66 0.66 1.32 1 2 C0.22265625 3.7265625 0.22265625 3.7265625 -0.9375 5.625 C-1.618125 6.73875 -2.29875 7.8525 -3 9 C-3.93423645 5.98968256 -4.04449911 5.13349732 -3 2 C-2.01 1.34 -1.02 0.68 0 0 Z " fill="#1D1D1D" transform="translate(333,174)"/>
</svg>
